<?xml version="1.0" standalone="no"?>
<!DOCTYPE svg PUBLIC "-//W3C//DTD SVG 20010904//EN"
 "http://www.w3.org/TR/2001/REC-SVG-20010904/DTD/svg10.dtd">
<svg version="1.0" xmlns="http://www.w3.org/2000/svg"
 width="1010.000000pt" height="1010.000000pt" viewBox="0 0 1010.000000 1010.000000"
 preserveAspectRatio="xMidYMid meet">
<metadata>
Created by potrace 1.14, written by Peter Selinger 2001-2017
</metadata>
<g transform="translate(0.000000,1010.000000) scale(0.100000,-0.100000)"
fill="#000000" stroke="none">
<path d="M6108 9395 c-2 -2 -28 -6 -58 -9 -98 -10 -227 -61 -305 -122 -177
-137 -267 -318 -266 -534 1 -78 2 -86 20 -160 41 -163 173 -333 311 -402 25
-13 47 -26 50 -29 3 -4 39 -17 80 -30 98 -29 274 -32 365 -5 64 19 180 74 216
103 169 135 258 309 264 511 2 72 -2 109 -19 187 -34 157 -183 339 -339 414
-93 45 -145 60 -232 67 -33 3 -65 6 -72 9 -6 2 -13 2 -15 0z m124 -268 c10 -2
21 -6 24 -10 4 -4 14 -7 21 -7 16 0 110 -58 133 -82 54 -55 100 -137 117 -208
6 -27 5 -134 -1 -170 -12 -61 -58 -142 -113 -197 -158 -157 -400 -157 -565 2
-78 74 -126 205 -114 308 3 29 7 59 7 67 1 8 14 42 30 75 69 148 218 239 374
230 38 -3 78 -6 87 -8z"/>
<path d="M5040 8794 c-43 -19 -137 -89 -169 -127 -14 -16 -31 -35 -38 -42 -7
-8 -13 -18 -13 -24 0 -6 -4 -11 -8 -11 -6 0 -84 -133 -88 -150 0 -3 -6 -17
-12 -33 -20 -48 -51 -147 -58 -185 -4 -20 -9 -46 -11 -57 -13 -64 -18 -139
-18 -290 0 -184 7 -266 36 -445 15 -90 17 -110 12 -110 -2 0 -25 15 -51 32
-26 18 -59 40 -74 48 -64 36 -303 165 -308 166 -3 0 -32 13 -65 28 -197 91
-498 190 -670 221 -16 3 -43 7 -60 10 -191 35 -292 44 -485 45 -150 0 -194 -8
-235 -46 -56 -52 -59 -166 -6 -228 9 -10 88 -54 176 -97 188 -92 299 -151 303
-161 2 -5 8 -8 13 -8 6 0 37 -18 70 -40 33 -22 63 -40 65 -40 8 0 119 -83 122
-92 2 -4 10 -8 17 -8 7 0 15 -3 17 -7 2 -5 28 -28 58 -52 106 -85 245 -236
295 -319 26 -44 47 -84 47 -89 -1 -4 5 -17 12 -28 13 -21 26 -61 32 -105 8
-57 11 -138 5 -147 -3 -5 -49 -35 -101 -67 -110 -68 -231 -163 -284 -225 -12
-13 -28 -31 -36 -40 -177 -185 -332 -540 -367 -841 -9 -76 -9 -369 0 -460 14
-140 48 -321 88 -469 12 -42 22 -83 24 -91 7 -37 129 -388 145 -420 31 -60 54
-75 120 -75 51 0 63 4 89 29 39 37 43 58 47 245 1 86 6 176 9 201 4 25 8 56
10 70 3 24 14 84 19 105 2 6 6 24 10 40 4 17 15 53 24 80 9 28 17 52 17 55 13
73 121 283 212 414 72 103 89 123 203 236 137 137 306 254 483 335 71 32 243
93 282 101 11 2 40 8 65 14 183 41 420 46 645 15 70 -10 257 -63 334 -94 103
-43 241 -113 241 -123 0 -4 5 -8 11 -8 45 0 330 -244 443 -380 45 -55 143
-205 186 -289 49 -93 89 -124 157 -123 49 0 82 19 117 66 18 24 21 42 21 134
-1 139 -12 234 -49 397 -32 147 -120 387 -182 498 -8 15 -12 27 -8 27 4 0 0 8
-8 18 -9 9 -19 28 -23 42 -4 14 -15 36 -25 50 -10 14 -29 48 -43 75 -14 28
-64 108 -111 179 -47 70 -84 132 -81 136 3 5 27 16 53 26 26 10 58 24 72 31
14 7 29 13 33 13 4 0 29 9 55 21 26 12 63 28 82 37 182 82 319 253 344 429 2
17 6 36 9 40 3 5 2 15 -3 23 -4 7 -4 24 1 37 5 12 5 23 1 23 -4 0 -8 21 -9 48
-3 88 -72 227 -155 312 -121 125 -321 183 -498 145 -146 -30 -204 -70 -588
-404 -30 -25 -59 -46 -65 -46 -6 0 -27 18 -47 40 -19 22 -44 49 -55 61 -38 40
-120 137 -129 153 -6 9 -20 27 -33 41 -26 28 -179 253 -213 315 -84 150 -185
367 -181 390 1 3 -6 19 -14 35 -8 16 -15 32 -15 35 0 3 0 6 -1 8 0 1 -2 9 -4
17 -2 8 -12 51 -23 95 -39 154 -53 328 -39 471 6 64 -12 107 -55 134 -39 24
-70 25 -118 4z m-63 -431 c4 -75 20 -155 67 -338 5 -22 28 -91 36 -110 31 -76
50 -130 50 -141 0 -8 5 -14 10 -14 6 0 10 -6 10 -13 0 -20 100 -211 154 -295
25 -40 46 -76 46 -81 0 -5 4 -11 8 -13 5 -1 28 -32 52 -68 150 -224 234 -319
679 -775 118 -121 194 -206 266 -299 17 -22 39 -51 51 -65 11 -14 40 -55 65
-91 24 -36 47 -66 52 -68 4 -2 7 -8 7 -14 0 -5 13 -28 28 -51 38 -57 49 -76
70 -117 9 -19 19 -37 22 -40 5 -5 52 -100 55 -110 1 -3 16 -35 33 -73 18 -37
32 -73 32 -80 0 -7 4 -17 9 -22 8 -9 80 -212 85 -240 1 -5 5 -16 9 -22 5 -8 3
-13 -7 -13 -9 0 -16 4 -16 9 0 16 -191 204 -272 268 -90 72 -217 156 -308 204
-88 48 -316 136 -370 145 -8 1 -48 11 -87 22 -40 11 -73 18 -73 16 0 -2 -10 0
-22 5 -13 5 -50 11 -83 15 -33 3 -71 9 -85 12 -31 7 -297 7 -365 0 -178 -18
-280 -42 -480 -109 -124 -42 -413 -192 -455 -237 -3 -3 -29 -23 -59 -44 -107
-76 -241 -209 -344 -341 -4 -5 -19 -23 -32 -40 -14 -16 -28 -38 -31 -47 -3
-10 -10 -18 -15 -18 -5 0 -9 -7 -9 -15 0 -8 -4 -15 -10 -15 -5 0 -10 -5 -10
-11 0 -6 -13 -30 -30 -54 -26 -38 -76 -137 -123 -245 -30 -68 -40 -96 -73
-214 -33 -119 -44 -146 -44 -109 0 11 -3 23 -7 27 -4 3 -8 17 -10 29 -4 27
-10 59 -22 117 -5 25 -12 72 -16 105 -4 33 -10 74 -14 90 -7 29 -6 395 2 445
3 23 15 92 23 133 2 10 6 27 9 37 3 10 7 27 9 37 8 39 41 130 68 185 15 32 28
61 28 64 0 3 26 44 57 92 69 105 229 267 333 338 87 60 199 120 285 153 33 13
74 29 90 36 30 13 219 71 259 80 244 51 277 55 571 70 74 4 70 2 55 20 -7 8
-10 15 -6 15 4 0 0 12 -7 28 -29 57 -189 535 -203 607 -2 11 -15 64 -29 118
-13 54 -27 119 -31 145 -3 26 -8 50 -10 53 -2 4 -6 31 -10 60 -3 30 -8 57 -10
60 -8 15 -18 182 -18 314 -1 165 8 243 40 355 9 30 17 62 19 71 4 17 44 109
48 109 1 0 3 -17 4 -37z m-1597 -767 c120 -23 130 -25 230 -53 52 -14 102 -27
110 -28 8 -2 15 -4 15 -5 0 -1 7 -3 15 -5 8 -2 47 -15 85 -30 39 -14 75 -28
80 -29 6 -2 24 -9 40 -16 17 -7 32 -14 35 -15 49 -17 274 -128 282 -139 4 -6
8 -7 8 -2 0 5 8 3 18 -5 9 -8 28 -20 41 -27 13 -8 40 -23 60 -34 129 -73 381
-252 381 -271 0 -7 14 -55 31 -107 43 -132 49 -160 35 -161 -6 0 -20 -2 -31
-5 -11 -2 -39 -6 -61 -9 -23 -3 -53 -8 -65 -11 -47 -9 -114 -23 -139 -28 -80
-16 -175 -43 -259 -73 -52 -18 -95 -32 -97 -30 -1 1 -4 23 -7 48 -15 122 -106
322 -198 433 -123 148 -301 309 -459 416 -36 24 -67 46 -70 49 -9 10 -111 71
-119 71 -5 0 -14 7 -21 15 -7 8 -21 15 -30 15 -10 0 -20 4 -22 9 -1 4 -21 18
-43 30 l-40 21 60 -5 c33 -3 94 -12 135 -19z m3512 -422 c61 -38 125 -114 129
-151 1 -5 6 -17 12 -28 19 -35 14 -125 -11 -195 -18 -51 -35 -77 -78 -118 -30
-29 -65 -57 -77 -62 -12 -5 -60 -25 -107 -45 -47 -20 -89 -38 -95 -39 -14 -4
-52 -20 -117 -50 -60 -27 -84 -32 -90 -17 -5 14 -113 133 -220 243 -91 93
-110 118 -90 118 4 0 23 15 43 33 20 17 56 48 80 68 24 21 56 48 70 60 14 13
52 47 84 74 32 28 64 56 71 63 7 6 17 12 23 12 6 0 11 4 11 9 0 11 106 58 150
66 19 3 36 7 38 9 9 10 138 -28 174 -50z"/>
<path d="M2691 3170 c-5 -19 -9 -42 -9 -50 0 -8 -3 -26 -6 -40 -3 -14 -8 -46
-10 -73 -5 -44 -8 -67 -21 -142 -3 -16 -8 -55 -11 -85 -9 -87 -12 -105 -14
-105 -2 0 -4 -9 -5 -20 -1 -11 -5 -42 -9 -70 -7 -60 -13 -100 -20 -140 -3 -16
-8 -52 -11 -80 -3 -27 -7 -59 -9 -71 -4 -20 -15 -99 -21 -154 -2 -14 -6 -42
-9 -62 -3 -21 -8 -55 -11 -75 -3 -21 -8 -49 -10 -63 -2 -14 -7 -45 -9 -70 -3
-25 -7 -56 -10 -70 -2 -14 -7 -47 -11 -75 -3 -27 -8 -59 -11 -70 -2 -11 -7
-40 -9 -65 -8 -81 -15 -132 -24 -189 -11 -61 -19 -117 -26 -177 -2 -21 -7 -52
-9 -69 -3 -16 -8 -50 -11 -75 -4 -25 -8 -56 -11 -70 -7 -47 -18 -145 -18 -175
l-1 -30 205 -3 c113 -1 214 0 226 2 22 6 20 -3 64 321 6 44 13 96 16 115 3 19
7 49 9 65 2 17 6 44 9 60 2 17 8 55 11 85 4 30 9 63 11 73 1 10 10 70 19 135
9 64 20 121 25 127 6 7 158 10 457 9 246 -1 456 0 465 3 19 5 29 43 44 173 3
30 8 64 10 75 14 64 15 123 2 127 -7 2 -215 4 -461 3 -330 0 -451 2 -458 11
-5 6 -7 29 -4 50 7 45 11 73 19 129 6 46 16 110 21 141 3 21 18 128 20 149 0
6 5 37 9 70 5 33 10 66 11 74 1 8 10 17 21 21 10 3 252 6 537 6 337 -1 521 2
527 9 8 10 16 50 25 133 3 26 8 54 10 62 8 29 18 126 16 155 -1 20 -8 20 -766
20 l-766 0 -8 -35z"/>
<path d="M5148 3165 c-2 -2 -21 -6 -43 -9 -283 -45 -522 -256 -623 -551 -54
-160 -66 -379 -27 -510 33 -114 104 -218 194 -289 69 -53 204 -93 331 -98 39
-2 47 12 56 100 2 20 6 51 8 67 13 78 17 104 22 152 l5 52 -43 11 c-24 7 -48
16 -54 21 -6 5 -13 7 -15 5 -10 -11 -89 73 -111 119 -21 41 -25 65 -26 132 -1
193 116 358 290 408 44 12 59 22 63 38 10 45 16 83 21 130 2 27 8 65 13 85 4
21 7 59 7 86 -1 48 -2 49 -33 52 -17 1 -33 1 -35 -1z"/>
<path d="M5351 3156 c-7 -9 -16 -55 -27 -146 -11 -89 -17 -131 -23 -161 -5
-21 -6 -41 -2 -47 3 -5 29 -17 57 -27 113 -37 176 -127 180 -257 5 -129 -39
-248 -120 -329 -38 -37 -129 -87 -175 -95 -45 -8 -52 -23 -67 -144 -2 -19 -7
-51 -10 -70 -3 -19 -7 -57 -10 -85 -3 -27 -7 -51 -9 -54 -2 -2 0 -11 5 -21 18
-33 175 -2 279 56 24 13 47 24 51 24 17 0 -56 -277 -81 -307 -6 -7 -9 -13 -5
-13 8 0 -38 -91 -73 -144 -31 -48 -96 -112 -131 -131 -14 -7 -41 -16 -61 -19
-50 -8 -70 -16 -67 -30 1 -9 -6 -66 -18 -130 -8 -46 -18 -135 -18 -176 l-1
-45 72 1 c39 0 93 7 120 14 49 13 164 59 173 70 3 3 19 15 36 25 89 56 204
196 270 329 20 39 39 78 44 86 39 67 117 340 136 475 1 11 3 20 4 20 1 0 3 14
5 30 2 17 6 39 9 50 3 11 8 47 11 80 4 33 8 71 11 85 7 40 17 256 17 360 0
288 -64 486 -197 612 -21 21 -47 40 -57 43 -11 4 -19 11 -19 16 0 5 -9 9 -19
9 -11 0 -22 4 -25 9 -16 25 -248 58 -265 37z"/>
<path d="M6845 3159 c-22 -4 -53 -9 -70 -12 -52 -9 -141 -46 -201 -86 -241
-157 -424 -542 -489 -1026 -2 -22 -8 -57 -11 -78 -3 -21 -7 -57 -9 -80 -2 -23
-7 -78 -11 -122 -10 -114 -6 -410 6 -410 1 0 3 -15 6 -34 10 -76 66 -231 106
-296 36 -56 123 -134 181 -162 70 -34 88 -39 168 -48 64 -7 67 -5 74 57 3 24
13 95 23 158 22 143 22 150 -3 164 -100 55 -146 142 -162 306 -11 112 -5 352
11 436 2 11 7 47 10 79 4 32 8 61 11 65 2 3 7 30 10 59 3 29 10 62 14 74 5 12
9 25 10 30 0 4 1 8 2 10 0 1 2 11 4 22 12 65 67 217 112 314 42 89 101 149
179 185 46 21 54 29 55 53 0 15 2 37 5 48 2 11 6 40 9 65 4 25 8 52 10 60 2 8
7 39 10 69 4 30 8 62 10 72 5 26 -23 37 -70 28z"/>
<path d="M7078 3162 c-20 -4 -31 -47 -43 -163 -4 -33 -8 -70 -11 -82 -2 -12
-7 -47 -10 -77 l-6 -55 41 -18 c22 -10 53 -34 69 -52 38 -47 73 -148 76 -217
0 -10 3 -18 6 -18 7 0 4 -239 -4 -320 -11 -110 -19 -166 -31 -235 -3 -16 -7
-43 -10 -60 -6 -38 -12 -66 -26 -132 -5 -29 -10 -55 -10 -58 0 -2 -6 -23 -14
-45 -8 -22 -14 -44 -15 -48 0 -4 -8 -29 -17 -57 -10 -27 -18 -52 -18 -55 -1
-9 -39 -85 -44 -90 -4 -3 -12 -17 -20 -32 -23 -45 -102 -117 -158 -144 -44
-22 -53 -31 -58 -58 -9 -58 -17 -111 -20 -136 -1 -14 -6 -50 -10 -80 -4 -30
-8 -71 -9 -90 -1 -35 0 -35 39 -34 197 7 382 121 514 318 55 83 151 277 151
307 0 4 5 20 12 36 6 15 12 33 13 38 2 6 12 44 23 85 12 41 23 86 26 100 3 14
7 36 10 50 14 64 17 77 22 100 2 14 6 39 8 55 2 17 6 44 9 60 32 177 44 398
32 565 -14 200 -76 382 -167 484 -45 52 -116 102 -173 123 -51 19 -155 40
-177 35z"/>
<path d="M4519 1308 c-74 -45 -144 -86 -156 -92 -33 -16 -29 -51 15 -125 36
-62 157 -201 175 -201 5 0 22 -9 38 -21 16 -11 35 -22 42 -23 7 -1 17 -4 22
-8 33 -21 181 -44 219 -34 23 6 26 21 52 226 3 25 9 62 14 82 10 50 -2 65 -74
83 -81 21 -130 64 -175 153 -12 23 -25 42 -29 42 -5 0 -69 -37 -143 -82z"/>
</g>
</svg>
