<?xml version="1.0" encoding="UTF-8" standalone="no"?>
<!DOCTYPE svg PUBLIC "-//W3C//DTD SVG 1.1//EN" "http://www.w3.org/Graphics/SVG/1.1/DTD/svg11.dtd">
<svg xmlns="http://www.w3.org/2000/svg" version="1.1" viewBox="0.00 0.00 385.00 505.00">
<path fill="#000000" d="
  M 279.39 68.18
  A 32.76 32.76 0.0 0 1 246.63 100.94
  A 32.76 32.76 0.0 0 1 213.87 68.18
  A 32.76 32.76 0.0 0 1 246.63 35.42
  A 32.76 32.76 0.0 0 1 279.39 68.18
  Z
  M 266.74 68.18
  A 20.11 20.11 0.0 0 0 246.63 48.07
  A 20.11 20.11 0.0 0 0 226.52 68.18
  A 20.11 20.11 0.0 0 0 246.63 88.29
  A 20.11 20.11 0.0 0 0 266.74 68.18
  Z"
/>
<path fill="#000000" d="
  M 173.93 138.83
  C 170.39 118.74 168.11 95.93 179.01 77.76
  C 182.12 72.58 185.63 68.88 190.77 65.87
  C 193.66 64.17 196.95 63.85 199.34 66.56
  Q 201.11 68.58 200.76 71.41
  C 200.43 74.06 200.20 76.75 200.31 79.41
  Q 201.06 98.49 210.00 116.43
  Q 220.36 137.22 237.94 155.33
  Q 238.27 155.68 238.64 155.37
  Q 245.99 149.31 253.75 142.49
  C 261.57 135.62 268.83 131.28 279.20 132.20
  Q 287.05 132.90 293.30 137.73
  C 298.76 141.96 303.13 148.90 303.86 155.94
  Q 305.14 168.35 297.85 177.13
  C 293.89 181.91 288.78 184.89 282.82 187.23
  Q 277.53 189.31 271.75 191.78
  Q 271.12 192.05 271.53 192.61
  Q 275.76 198.33 279.17 203.99
  Q 285.19 213.97 290.10 225.66
  Q 298.18 244.93 298.53 265.13
  C 298.68 273.71 288.26 276.53 284.34 268.55
  Q 274.56 248.69 256.74 236.29
  Q 234.41 220.75 207.30 221.11
  Q 185.10 221.41 165.99 232.43
  Q 146.38 243.73 134.94 263.31
  Q 122.96 283.80 123.69 308.86
  Q 123.84 314.32 122.86 316.12
  Q 120.53 320.37 115.25 319.29
  C 112.72 318.77 111.44 316.94 110.58 314.65
  Q 104.18 297.53 101.06 284.00
  Q 96.28 263.30 98.08 244.05
  Q 99.13 232.80 104.57 220.30
  Q 112.08 203.04 127.05 191.72
  C 130.29 189.28 133.80 187.42 137.24 185.32
  Q 137.72 185.02 137.75 184.46
  Q 138.18 176.72 134.97 170.29
  C 132.61 165.54 129.61 161.23 125.81 157.48
  Q 116.32 148.13 105.28 141.24
  Q 92.90 133.51 78.67 127.12
  Q 75.00 125.47 74.22 121.52
  Q 73.06 115.67 77.35 112.90
  Q 79.53 111.49 85.08 111.42
  Q 90.43 111.35 95.37 111.63
  Q 114.71 112.73 134.60 119.64
  Q 155.27 126.81 173.62 139.03
  A 0.20 0.20 0.0 0 0 173.93 138.83
  Z
  M 199.59 182.90
  Q 176.47 182.36 154.56 190.47
  Q 144.20 194.30 136.78 199.47
  Q 111.92 216.77 109.78 247.88
  Q 108.55 265.65 113.50 285.23
  Q 113.74 286.17 114.00 285.23
  Q 115.37 280.30 116.68 275.61
  C 117.76 271.76 119.54 268.17 121.09 264.50
  Q 122.84 260.38 125.19 256.73
  Q 126.95 254.00 128.60 251.34
  C 130.68 247.98 133.38 245.15 135.85 242.07
  C 142.00 234.41 150.49 227.96 158.89 222.83
  Q 161.38 221.30 163.92 220.09
  C 168.09 218.10 172.12 215.93 176.55 214.64
  Q 180.03 213.63 183.45 212.55
  C 187.29 211.34 191.34 210.89 195.33 210.18
  C 200.41 209.27 205.50 209.42 210.66 209.29
  C 214.58 209.20 218.64 210.01 222.60 210.46
  C 227.74 211.04 232.54 212.64 237.54 213.93
  C 241.31 214.90 244.95 216.64 248.64 218.13
  Q 252.51 219.70 256.58 222.13
  Q 266.40 227.99 273.79 234.81
  Q 278.73 239.38 283.33 244.86
  Q 284.02 245.67 283.73 244.65
  Q 278.70 226.35 269.00 210.25
  Q 264.53 202.84 258.77 195.46
  Q 251.55 186.21 244.93 179.62
  Q 233.02 167.77 224.35 158.33
  Q 214.96 148.09 205.17 132.41
  Q 193.45 113.63 189.62 92.85
  Q 188.91 89.04 188.70 85.26
  Q 188.65 84.54 188.35 85.20
  C 184.40 93.90 182.83 103.51 183.06 113.44
  C 183.61 136.89 191.54 160.59 199.81 182.59
  A 0.23 0.23 0.0 0 1 199.59 182.90
  Z
  M 137.92 153.49
  Q 145.95 162.66 148.83 174.12
  Q 149.43 176.51 149.47 179.03
  Q 149.48 179.73 150.13 179.47
  Q 155.25 177.38 160.04 176.01
  Q 169.28 173.38 182.53 171.59
  Q 183.04 171.52 182.88 171.03
  L 178.72 157.69
  Q 178.56 157.17 178.12 156.84
  Q 165.48 147.24 151.67 139.98
  Q 127.22 127.12 100.87 123.98
  Q 98.25 123.67 100.60 124.86
  Q 115.02 132.20 128.53 143.86
  C 131.89 146.75 134.98 150.14 137.92 153.49
  Z
  M 263.36 181.91
  A 0.76 0.75 57.4 0 0 264.24 182.11
  Q 271.34 178.85 279.29 175.76
  C 285.33 173.40 289.93 170.15 291.65 163.86
  C 293.38 157.56 291.47 151.45 286.27 147.38
  C 278.58 141.39 270.25 143.77 263.45 149.81
  Q 255.45 156.91 247.20 163.79
  Q 246.69 164.21 247.17 164.66
  Q 255.38 172.57 263.36 181.91
  Z"
/>
<path fill="#000000" d="
  M 91.64 396.27
  L 136.49 396.24
  A 1.11 1.11 0.0 0 1 137.59 397.51
  L 135.21 414.29
  A 1.11 1.11 0.0 0 1 134.11 415.24
  L 88.67 415.24
  A 1.11 1.11 0.0 0 0 87.57 416.20
  L 80.86 464.04
  A 1.11 1.11 0.0 0 1 79.76 465.00
  L 59.07 464.99
  A 1.11 1.11 0.0 0 1 57.97 463.73
  L 74.56 345.72
  A 1.11 1.11 0.0 0 1 75.65 344.76
  L 150.68 344.76
  A 1.11 1.11 0.0 0 1 151.78 346.03
  L 149.41 362.79
  A 1.11 1.11 0.0 0 1 148.32 363.75
  L 95.93 363.74
  A 1.11 1.11 0.0 0 0 94.83 364.69
  L 90.54 395.00
  A 1.11 1.11 0.0 0 0 91.64 396.27
  Z"
/>
<path fill="#000000" d="
  M 193.44 366.87
  C 185.02 370.75 180.14 379.52 181.02 388.72
  C 181.63 395.11 186.14 399.72 192.42 400.71
  A 1.35 1.35 0.0 0 1 193.54 402.23
  L 191.26 418.30
  A 1.65 1.65 0.0 0 1 189.48 419.71
  C 185.23 419.31 180.82 419.02 176.87 417.20
  C 156.40 407.82 158.83 379.15 169.55 363.81
  Q 180.74 347.79 199.90 346.68
  A 1.09 1.08 -18.3 0 1 200.85 347.15
  Q 201.21 347.68 201.13 348.27
  Q 199.93 356.63 198.87 364.29
  A 1.69 1.69 0.0 0 1 197.83 365.63
  C 196.39 366.21 194.87 366.21 193.44 366.87
  Z"
/>
<path fill="#000000" d="
  M 213.64 414.98
  C 208.54 417.88 204.28 419.83 198.27 419.68
  A 1.09 1.08 5.0 0 1 197.23 418.45
  L 199.54 401.97
  A 1.55 1.54 87.9 0 1 200.74 400.67
  Q 215.14 397.54 216.99 381.82
  C 217.84 374.63 213.94 366.91 206.10 365.83
  A 1.45 1.44 8.1 0 1 204.86 364.19
  L 207.14 347.90
  A 1.28 1.28 0.0 0 1 208.38 346.80
  Q 228.89 346.43 234.52 366.15
  C 235.81 370.69 236.57 375.65 236.67 380.35
  Q 237.09 399.22 232.85 419.99
  Q 229.30 437.36 220.48 450.01
  Q 210.09 464.92 192.20 465.02
  A 1.31 1.30 -86.2 0 1 190.90 463.53
  L 193.14 447.43
  Q 193.35 445.97 194.82 445.93
  C 206.89 445.65 212.64 424.84 214.26 415.41
  Q 214.41 414.54 213.64 414.98
  Z"
/>
<path fill="#000000" d="
  M 272.21 375.30
  C 265.99 387.73 263.75 401.30 262.56 415.11
  C 261.89 422.88 261.06 442.76 270.95 445.80
  A 1.31 1.31 0.0 0 1 271.86 447.23
  L 269.50 464.01
  A 1.11 1.11 0.0 0 1 268.38 464.97
  C 245.82 464.45 241.62 440.75 242.35 423.04
  Q 242.98 407.84 246.33 392.07
  C 249.24 378.41 254.59 364.44 264.42 355.20
  Q 272.55 347.55 284.47 346.82
  A 1.25 1.25 0.0 0 1 285.79 348.24
  L 283.40 365.00
  A 1.48 1.47 -4.4 0 1 282.35 366.21
  Q 275.82 368.07 272.21 375.30
  Z"
/>
<path fill="#000000" d="
  M 314.52 425.24
  C 311.37 437.51 305.41 451.09 295.54 458.62
  Q 288.19 464.22 277.61 464.93
  A 1.05 1.05 0.0 0 1 276.50 463.74
  L 278.86 446.92
  Q 278.99 445.99 279.88 445.67
  C 289.35 442.31 293.33 431.62 295.52 422.59
  C 298.03 412.19 306.75 370.40 291.41 366.21
  A 1.35 1.35 0.0 0 1 290.42 364.71
  L 292.74 347.96
  Q 292.91 346.76 294.12 346.83
  C 329.89 348.90 319.98 403.98 314.52 425.24
  Z"
/>
<path fill="#000000" d="
  M 180.14 444.13
  C 181.94 445.26 184.03 445.58 186.07 445.99
  A 1.40 1.38 9.8 0 1 187.18 447.55
  L 184.86 463.97
  A 1.18 1.16 3.4 0 1 183.72 464.97
  C 171.48 465.17 163.57 459.23 157.91 448.81
  Q 157.18 447.48 156.86 446.14
  Q 156.63 445.18 157.48 444.67
  L 172.23 435.75
  A 1.22 1.22 0.0 0 1 174.00 436.37
  Q 175.85 441.44 180.14 444.13
  Z"
/>
</svg>
