<svg xmlns="http://www.w3.org/2000/svg" viewBox="0 0 832 300"><path d="M800.43 271.85a.26.26 0 0 1-.26.26H29.95a.26.26 0 0 1-.26-.26V23.55a.26.26 0 0 1 .26-.26h770.22a.26.26 0 0 1 .26.26v248.3Zm-6.97-240.92a.65.65 0 0 0-.65-.65h-198.5a.65.65 0 0 0-.65.65v233.36a.65.65 0 0 0 .65.65h198.5a.65.65 0 0 0 .65-.65V30.93Zm-602.98 41.5a.62.62 0 0 0-.61-.71l-21.12.01a.62.62 0 0 0-.62.53l-21 148.49a.62.62 0 0 0 .61.71l21.02.03a.62.62 0 0 0 .62-.53l21.1-148.53ZM323.814 79a13.82 11.87-44.4 0 0-18.179 1.19 13.82 11.87-44.4 0 0-1.569 18.15 13.82 11.87-44.4 0 0 18.179-1.19A13.82 11.87-44.4 0 0 323.814 79ZM73.63 221.48a.59.59 0 0 0 .58-.5l8.67-58.92a.59.59 0 0 1 .58-.5l52.22-.03a.59.59 0 0 0 .58-.51l2.71-18.71a.59.59 0 0 0-.58-.67l-52.1-.05a.59.59 0 0 1-.59-.67l5.76-40.83a.59.59 0 0 1 .58-.51l60.2.02a.59.59 0 0 0 .58-.51l2.66-18.67a.59.59 0 0 0-.58-.67H71.6a.59.59 0 0 0-.58.51L51.33 220.82a.59.59 0 0 0 .59.67l21.71-.01Zm337.41-113.12q-4.68 9.63-5.34 21.83c-1.07 19.82 7.51 35.29 28.69 36.74q1.91.13 2.15-1.68 1.14-8.39 2.41-17.39a1.44 1.43-83.7 0 0-1.29-1.62c-6.3-.55-11.2-7.19-12.26-12.8q-1.44-7.63 1.87-15.78 5.1-12.56 17.29-15.47a1.51 1.5 87.2 0 0 1.14-1.26l2.47-18.11a.82.82 0 0 0-.8-.93c-15.68-.15-29.79 13.02-36.33 26.47Zm54.19 52.2q-1.6 11.92-6.16 23.14c-3.27 8.04-8.25 16-17.26 17.66a1.5 1.49 89 0 0-1.22 1.27l-2.44 17.39a1.25 1.25 0 0 0 1.24 1.42q10.26-.04 17.93-5.3 5.76-3.96 8.95-8.13 8.67-11.35 13.58-26.25 3.86-11.73 6.03-30.27 1.82-15.55 2.1-22.49c.44-10.7-.46-21.37-4.42-31.07q-6.16-15.13-24.59-16.25-1.48-.09-1.68 1.38l-2.42 17.67a1.49 1.48-80.5 0 0 1.18 1.66c4.16.82 7.47 3.49 9.52 7.24q4.71 8.65 1.58 19.44-3.67 12.62-14.81 16.76-1.3.48-2.67.53a1.4 1.4 0 0 0-1.34 1.21l-2.44 18.15a1.05 1.04 1.1 0 0 1.14 1.18q9.42-.94 17.36-6.84a.53.53 0 0 1 .84.5Zm80 26.7q-4.58 10.17-13.04 13.58-.8.32-.91 1.17l-2.46 18.31a.97.96-.3 0 0 1.1 1.08c5.83-.81 12.17-2.57 16.87-6.25 12.25-9.59 19.15-26.2 22.77-41.13q4.81-19.78 6-39.15c.69-11.34.47-22.79-3.21-33.79-3.76-11.2-10.98-17.8-23.18-18.98a1.07 1.07 0 0 0-1.16.92l-2.53 18.67a.99.99 0 0 0 .62 1.05q5.58 2.11 7.74 9.17 3.27 10.72 1.94 26.35-1.25 14.75-3.97 27.91-2.48 12.01-6.58 21.09Zm-40.99-78.86c-7.68 16.15-10.98 33.74-12.74 52.03q-.54 5.64-.96 11.09c-.59 7.57.05 15.64 1.46 23.01q.7 3.69 2.62 9.2 5.53 15.86 22.27 17.63a1.34 1.34 0 0 0 1.46-1.15l2.5-18.44a1.13 1.13 0 0 0-.77-1.22c-4.39-1.42-6.82-6.03-7.82-10.39q-2.25-9.79-1.8-20.04c.79-18.25 3.66-37.09 10.69-53.32q4.39-10.15 13.02-14.23a1.95 1.94-9.3 0 0 1.1-1.52l2.33-18.01a.8.8 0 0 0-.86-.9c-16.06 1.27-25.89 12.36-32.5 26.26ZM245.32 212.65c.33 2.89.01 5.4 1.02 8.21a.92.91 79.9 0 0 .86.61l21.32.01a1.08 1.08 0 0 0 1.06-1.32q-2.43-10.48-.86-21.97 2.97-21.85 5.91-42.03c1.42-9.77 2.28-18.25-2.11-27.03-4.27-8.54-13.55-13.37-22.52-14.54-15.03-1.98-30.06 1.82-41.49 11.86q-9.22 8.11-11.26 19.64a.53.53 0 0 0 .52.62h20.72a1.22 1.21 4.7 0 0 1.2-1.01c.28-1.57.54-3.06 1.44-4.41 4.88-7.38 13.59-10.19 22-8.4 11.84 2.52 11.18 14.3 8.95 23.56a.96.95 7.4 0 1-.96.73c-18.08-.4-39.95-.5-53.23 14.26q-8.72 9.69-9.59 22.95c-1.06 16.25 10.18 27.76 25.85 28.76q17.75 1.15 30.28-10.83a.53.53 0 0 1 .89.33Zm114.4-87.4.59-8.29q.07-.91-.85-.91l-19.73-.03a.38.37-86.5 0 0-.37.33l-14.89 104.31a.7.7 0 0 0 .69.8l20.53.05a1.2 1.2 0 0 0 1.2-1.03q4.73-32.66 9.72-69.57.12-.91.54-1.63 6.88-11.82 21.14-11.99 4.21-.06 8.98.51a.67.66 7.2 0 0 .73-.56l3.23-21.22q.09-.63-.55-.7c-1.22-.13-1.74-.93-3.12-1.05q-16.13-1.4-26.55 11.48-1.45 1.8-1.29-.5Zm-75.6 95.5a.66.66 0 0 0 .65.75h20.93a.66.66 0 0 0 .65-.57l14.83-104.1a.66.66 0 0 0-.65-.75l-21.04-.07a.66.66 0 0 0-.66.57l-14.71 104.17Zm116.46-18.56c3.52 7.83 9.66 15.16 17.81 17.64q4.17 1.27 8.42 1.65a1.94 1.94 0 0 0 2.1-1.67l2.41-17.61a.69.68-80.4 0 0-.53-.76q-9.97-2.1-13.59-11.43a1 1 0 0 0-1.48-.48l-15.11 9.75q-.52.33-.49.95.04 1.01.46 1.96Z"/><path d="M760.76 68.63a23.56 23.56 0 0 1-23.56 23.56 23.56 23.56 0 0 1-23.56-23.56 23.56 23.56 0 0 1 23.56-23.56 23.56 23.56 0 0 1 23.56 23.56Zm-8.94.01a14.68 14.68 0 0 0-14.68-14.68 14.68 14.68 0 0 0-14.68 14.68 14.68 14.68 0 0 0 14.68 14.68 14.68 14.68 0 0 0 14.68-14.68Z"/><path d="M731.69 131.71q6.91-6.2 14.61-12.41c11.71-9.46 29.18-3.1 31.93 11.7 1.58 8.47-2.01 16.83-9.82 21.04q-6.18 3.33-12.79 5.68a.7.7 0 0 0-.33 1.07q13.54 18.6 17.96 38.99c1.03 4.76 1.13 9.31 1.2 14.05.04 2.2-1.36 4.3-3.65 4.61q-4.28.58-6.4-3.39-16.3-30.52-50.75-33.67c-16.7-1.53-34.56 5.02-46.94 17.06q-14.84 14.44-18.04 35.56c-.71 4.7-.2 9.39-.53 13.98-.37 5.07-7.6 5.8-9.42 1.05q-6.58-17.17-8.63-33.78c-1-8.17-.95-17.93 1.21-26.2q4.67-17.82 19.56-29c2.21-1.66 4.76-2.96 7.08-4.47q.41-.27.5-.75c1.13-5.74-2.75-13.18-6.52-17.26-9.83-10.64-22.43-18.5-36.22-24.45q-3.48-1.5-3.22-5.71c.25-3.9 3.18-5.43 6.87-5.45q11.12-.04 18.14 1.24 24.9 4.54 46.19 18.25a.61.61 0 0 0 .87-.24q.27-.52.11-1.16-2.19-8.82-2.01-19.86.14-8.52 2.44-15.46c2.06-6.21 6.29-12.68 12-15.87 2.22-1.24 5.58-.82 6.48 1.8q.53 1.54.35 3.36-.59 6.13.14 10.48c3.25 19.26 13.42 35.46 26.71 49.18q.44.46.92.03Zm-29.12 19.85c-17.4-.05-37.12 4.31-50.21 16.08q-13.26 11.91-14.31 31.23-.75 13.75 2.76 27.1a.19.19 0 0 0 .37-.01q4.24-20.45 19.67-35.58 13.23-12.97 32.85-17.87 13.15-3.29 27.8-.72 24.9 4.36 41.05 23.63 1.35 1.62 1.29-.49 0-.08-.35-1.18-7.62-23.99-25.26-42.35c-7.72-8.04-16.31-15.85-22.96-24.58-10.29-13.5-18.07-28.64-20.1-45.23a.3.3 0 0 0-.57-.08q-2.57 6.09-3.12 11.54c-1.98 19.67 4.62 39.39 11.6 57.77q.28.74-.51.74Zm-71.54-42.15c6.56 3.44 12.81 7.64 18.6 12.28 7.97 6.39 15.57 15.69 16.99 26.03q.24 1.7 1.84 1.1 10.87-4.1 21.83-5.31 1.08-.11.72-1.14-1.23-3.53-2.38-7.59-.56-1.98-2.18-3.17c-14.24-10.4-29.99-18.27-47.4-21.47q-3.78-.69-7.56-1.41-.31-.06-.42.24l-.1.27q-.05.12.06.17Zm117.39 40.96a1.66 1.65 58.2 0 0 1.97.47q6.23-2.78 12.35-5.37c8.41-3.54 10.4-14.37 2.67-19.93-6.06-4.36-11.77-1.89-16.84 2.62q-5.56 4.94-11.16 9.38-.49.4-.03.83 5.83 5.59 11.04 12ZM246.54 192.86c-6.34 8.4-18.03 13.73-28.36 10.24q-5.11-1.73-6.75-7.49-1.03-3.59.39-8.5c2.76-9.56 11.45-13.94 20.96-14.61q8.15-.57 16.68-.29a.47.47 0 0 1 .45.53l-2.4 17.78a5.03 4.98 67.8 0 1-.97 2.34Z"/></svg>