<svg xmlns="http://www.w3.org/2000/svg" version="1.1" viewBox="29.69 23.29 770.74 248.82">
<path fill="#000000" d="   M 800.43 271.85   A 0.26 0.26 0.0 0 1 800.17 272.11   L 29.95 272.11   A 0.26 0.26 0.0 0 1 29.69 271.85   L 29.69 23.55   A 0.26 0.26 0.0 0 1 29.95 23.29   L 800.17 23.29   A 0.26 0.26 0.0 0 1 800.43 23.55   L 800.43 271.85   Z   M 793.46 30.93   A 0.65 0.65 0.0 0 0 792.81 30.28   L 594.31 30.28   A 0.65 0.65 0.0 0 0 593.66 30.93   L 593.66 264.29   A 0.65 0.65 0.0 0 0 594.31 264.94   L 792.81 264.94   A 0.65 0.65 0.0 0 0 793.46 264.29   L 793.46 30.93   Z   M 190.48 72.43   A 0.62 0.62 0.0 0 0 189.87 71.72   L 168.75 71.73   A 0.62 0.62 0.0 0 0 168.13 72.26   L 147.13 220.75   A 0.62 0.62 0.0 0 0 147.74 221.46   L 168.76 221.49   A 0.62 0.62 0.0 0 0 169.38 220.96   L 190.48 72.43   Z   M 323.8140 79.0007   A 13.82 11.87 -44.4 0 0 305.6350 80.1892   A 13.82 11.87 -44.4 0 0 304.0660 98.3393   A 13.82 11.87 -44.4 0 0 322.2450 97.1508   A 13.82 11.87 -44.4 0 0 323.8140 79.0007   Z   M 73.63 221.48   A 0.59 0.59 0.0 0 0 74.21 220.98   L 82.88 162.06   A 0.59 0.59 0.0 0 1 83.46 161.56   L 135.68 161.53   A 0.59 0.59 0.0 0 0 136.26 161.02   L 138.97 142.31   A 0.59 0.59 0.0 0 0 138.39 141.64   L 86.29 141.59   A 0.59 0.59 0.0 0 1 85.70 140.92   L 91.46 100.09   A 0.59 0.59 0.0 0 1 92.04 99.58   L 152.24 99.60   A 0.59 0.59 0.0 0 0 152.82 99.09   L 155.48 80.42   A 0.59 0.59 0.0 0 0 154.90 79.75   L 71.60 79.75   A 0.59 0.59 0.0 0 0 71.02 80.26   L 51.33 220.82   A 0.59 0.59 0.0 0 0 51.92 221.49   L 73.63 221.48   Z   M 411.04 108.36   Q 406.36 117.99 405.70 130.19   C 404.63 150.01 413.21 165.48 434.39 166.93   Q 436.30 167.06 436.54 165.25   Q 437.68 156.86 438.95 147.86   A 1.44 1.43 -83.7 0 0 437.66 146.24   C 431.36 145.69 426.46 139.05 425.40 133.44   Q 423.96 125.81 427.27 117.66   Q 432.37 105.10 444.56 102.19   A 1.51 1.50 87.2 0 0 445.70 100.93   L 448.17 82.82   A 0.82 0.82 0.0 0 0 447.37 81.89   C 431.69 81.74 417.58 94.91 411.04 108.36   Z   M 465.23 160.56   Q 463.63 172.48 459.07 183.70   C 455.80 191.74 450.82 199.70 441.81 201.36   A 1.50 1.49 89.0 0 0 440.59 202.63   L 438.15 220.02   A 1.25 1.25 0.0 0 0 439.39 221.44   Q 449.65 221.40 457.32 216.14   Q 463.08 212.18 466.27 208.01   Q 474.94 196.66 479.85 181.76   Q 483.71 170.03 485.88 151.49   Q 487.70 135.94 487.98 129.00   C 488.42 118.30 487.52 107.63 483.56 97.93   Q 477.40 82.80 458.97 81.68   Q 457.49 81.59 457.29 83.06   L 454.87 100.73   A 1.49 1.48 -80.5 0 0 456.05 102.39   C 460.21 103.21 463.52 105.88 465.57 109.63   Q 470.28 118.28 467.15 129.07   Q 463.48 141.69 452.34 145.83   Q 451.04 146.31 449.67 146.36   A 1.40 1.40 0.0 0 0 448.33 147.57   L 445.89 165.72   A 1.05 1.04 1.1 0 0 447.03 166.90   Q 456.45 165.96 464.39 160.06   A 0.53 0.53 0.0 0 1 465.23 160.56   Z   M 545.23 187.26   Q 540.65 197.43 532.19 200.84   Q 531.39 201.16 531.28 202.01   L 528.82 220.32   A 0.97 0.96 -0.3 0 0 529.92 221.40   C 535.75 220.59 542.09 218.83 546.79 215.15   C 559.04 205.56 565.94 188.95 569.56 174.02   Q 574.37 154.24 575.56 134.87   C 576.25 123.53 576.03 112.08 572.35 101.08   C 568.59 89.88 561.37 83.28 549.17 82.10   A 1.07 1.07 0.0 0 0 548.01 83.02   L 545.48 101.69   A 0.99 0.99 0.0 0 0 546.10 102.74   Q 551.68 104.85 553.84 111.91   Q 557.11 122.63 555.78 138.26   Q 554.53 153.01 551.81 166.17   Q 549.33 178.18 545.23 187.26   Z   M 504.24 108.40   C 496.56 124.55 493.26 142.14 491.50 160.43   Q 490.96 166.07 490.54 171.52   C 489.95 179.09 490.59 187.16 492.00 194.53   Q 492.70 198.22 494.62 203.73   Q 500.15 219.59 516.89 221.36   A 1.34 1.34 0.0 0 0 518.35 220.21   L 520.85 201.77   A 1.13 1.13 0.0 0 0 520.08 200.55   C 515.69 199.13 513.26 194.52 512.26 190.16   Q 510.01 180.37 510.46 170.12   C 511.25 151.87 514.12 133.03 521.15 116.80   Q 525.54 106.65 534.17 102.57   A 1.95 1.94 -9.3 0 0 535.27 101.05   L 537.60 83.04   A 0.80 0.80 0.0 0 0 536.74 82.14   C 520.68 83.41 510.85 94.50 504.24 108.40   Z   M 245.32 212.65   C 245.65 215.54 245.33 218.05 246.34 220.86   A 0.92 0.91 79.9 0 0 247.20 221.47   L 268.52 221.48   A 1.08 1.08 0.0 0 0 269.58 220.16   Q 267.15 209.68 268.72 198.19   Q 271.69 176.34 274.63 156.16   C 276.05 146.39 276.91 137.91 272.52 129.13   C 268.25 120.59 258.97 115.76 250.00 114.59   C 234.97 112.61 219.94 116.41 208.51 126.45   Q 199.29 134.56 197.25 146.09   A 0.53 0.53 0.0 0 0 197.77 146.71   L 218.49 146.71   A 1.22 1.21 4.7 0 0 219.69 145.70   C 219.97 144.13 220.23 142.64 221.13 141.29   C 226.01 133.91 234.72 131.10 243.13 132.89   C 254.97 135.41 254.31 147.19 252.08 156.45   A 0.96 0.95 7.4 0 1 251.12 157.18   C 233.04 156.78 211.17 156.68 197.89 171.44   Q 189.17 181.13 188.30 194.39   C 187.24 210.64 198.48 222.15 214.15 223.15   Q 231.90 224.30 244.43 212.32   A 0.53 0.53 0.0 0 1 245.32 212.65   Z   M 359.72 125.25   L 360.31 116.96   Q 360.38 116.05 359.46 116.05   L 339.73 116.02   A 0.38 0.37 -86.5 0 0 339.36 116.35   L 324.47 220.66   A 0.70 0.70 0.0 0 0 325.16 221.46   L 345.69 221.51   A 1.20 1.20 0.0 0 0 346.89 220.48   Q 351.62 187.82 356.61 150.91   Q 356.73 150.00 357.15 149.28   Q 364.03 137.46 378.29 137.29   Q 382.50 137.23 387.27 137.80   A 0.67 0.66 7.2 0 0 388.00 137.24   L 391.23 116.02   Q 391.32 115.39 390.68 115.32   C 389.46 115.19 388.94 114.39 387.56 114.27   Q 371.43 112.87 361.01 125.75   Q 359.56 127.55 359.72 125.25   Z   M 284.12 220.75   A 0.66 0.66 0.0 0 0 284.77 221.50   L 305.70 221.50   A 0.66 0.66 0.0 0 0 306.35 220.93   L 321.18 116.83   A 0.66 0.66 0.0 0 0 320.53 116.08   L 299.49 116.01   A 0.66 0.66 0.0 0 0 298.83 116.58   L 284.12 220.75   Z   M 400.58 202.19   C 404.10 210.02 410.24 217.35 418.39 219.83   Q 422.56 221.10 426.81 221.48   A 1.94 1.94 0.0 0 0 428.91 219.81   L 431.32 202.20   A 0.69 0.68 -80.4 0 0 430.79 201.44   Q 420.82 199.34 417.20 190.01   A 1.00 1.00 0.0 0 0 415.72 189.53   L 400.61 199.28   Q 400.09 199.61 400.12 200.23   Q 400.16 201.24 400.58 202.19   Z"/>
<path fill="#000000" d="   M 760.76 68.63   A 23.56 23.56 0.0 0 1 737.20 92.19   A 23.56 23.56 0.0 0 1 713.64 68.63   A 23.56 23.56 0.0 0 1 737.20 45.07   A 23.56 23.56 0.0 0 1 760.76 68.63   Z   M 751.82 68.64   A 14.68 14.68 0.0 0 0 737.14 53.96   A 14.68 14.68 0.0 0 0 722.46 68.64   A 14.68 14.68 0.0 0 0 737.14 83.32   A 14.68 14.68 0.0 0 0 751.82 68.64   Z"/>
<path fill="#000000" d="   M 731.69 131.71   Q 738.60 125.51 746.30 119.30   C 758.01 109.84 775.48 116.20 778.23 131.00   C 779.81 139.47 776.22 147.83 768.41 152.04   Q 762.23 155.37 755.62 157.72   A 0.70 0.70 0.0 0 0 755.29 158.79   Q 768.83 177.39 773.25 197.78   C 774.28 202.54 774.38 207.09 774.45 211.83   C 774.49 214.03 773.09 216.13 770.80 216.44   Q 766.52 217.02 764.40 213.05   Q 748.10 182.53 713.65 179.38   C 696.95 177.85 679.09 184.40 666.71 196.44   Q 651.87 210.88 648.67 232.00   C 647.96 236.70 648.47 241.39 648.14 245.98   C 647.77 251.05 640.54 251.78 638.72 247.03   Q 632.14 229.86 630.09 213.25   C 629.09 205.08 629.14 195.32 631.30 187.05   Q 635.97 169.23 650.86 158.05   C 653.07 156.39 655.62 155.09 657.94 153.58   Q 658.35 153.31 658.44 152.83   C 659.57 147.09 655.69 139.65 651.92 135.57   C 642.09 124.93 629.49 117.07 615.70 111.12   Q 612.22 109.62 612.48 105.41   C 612.73 101.51 615.66 99.98 619.35 99.96   Q 630.47 99.92 637.49 101.20   Q 662.39 105.74 683.68 119.45   A 0.61 0.61 0.0 0 0 684.55 119.21   Q 684.82 118.69 684.66 118.05   Q 682.47 109.23 682.65 98.19   Q 682.79 89.67 685.09 82.73   C 687.15 76.52 691.38 70.05 697.09 66.86   C 699.31 65.62 702.67 66.04 703.57 68.66   Q 704.10 70.20 703.92 72.02   Q 703.33 78.15 704.06 82.50   C 707.31 101.76 717.48 117.96 730.77 131.68   Q 731.21 132.14 731.69 131.71   Z   M 702.57 151.56   C 685.17 151.51 665.45 155.87 652.36 167.64   Q 639.10 179.55 638.05 198.87   Q 637.30 212.62 640.81 225.97   A 0.19 0.19 0.0 0 0 641.18 225.96   Q 645.42 205.51 660.85 190.38   Q 674.08 177.41 693.70 172.51   Q 706.85 169.22 721.50 171.79   Q 746.40 176.15 762.55 195.42   Q 763.90 197.04 763.84 194.93   Q 763.84 194.85 763.49 193.75   Q 755.87 169.76 738.23 151.40   C 730.51 143.36 721.92 135.55 715.27 126.82   C 704.98 113.32 697.20 98.18 695.17 81.59   A 0.30 0.30 0.0 0 0 694.60 81.51   Q 692.03 87.60 691.48 93.05   C 689.50 112.72 696.10 132.44 703.08 150.82   Q 703.36 151.56 702.57 151.56   Z   M 631.03 109.41   C 637.59 112.85 643.84 117.05 649.63 121.69   C 657.60 128.08 665.20 137.38 666.62 147.72   Q 666.86 149.42 668.46 148.82   Q 679.33 144.72 690.29 143.51   Q 691.37 143.40 691.01 142.37   Q 689.78 138.84 688.63 134.78   Q 688.07 132.80 686.45 131.61   C 672.21 121.21 656.46 113.34 639.05 110.14   Q 635.27 109.45 631.49 108.73   Q 631.18 108.67 631.07 108.97   L 630.97 109.24   Q 630.92 109.36 631.03 109.41   Z   M 748.42 150.37   A 1.66 1.65 58.2 0 0 750.39 150.84   Q 756.62 148.06 762.74 145.47   C 771.15 141.93 773.14 131.10 765.41 125.54   C 759.35 121.18 753.64 123.65 748.57 128.16   Q 743.01 133.10 737.41 137.54   Q 736.92 137.94 737.38 138.37   Q 743.21 143.96 748.42 150.37   Z"/>
<path fill="#000000" d="   M 246.54 192.86   C 240.20 201.26 228.51 206.59 218.18 203.10   Q 213.07 201.37 211.43 195.61   Q 210.40 192.02 211.82 187.11   C 214.58 177.55 223.27 173.17 232.78 172.50   Q 240.93 171.93 249.46 172.21   A 0.47 0.47 0.0 0 1 249.91 172.74   L 247.51 190.52   A 5.03 4.98 67.8 0 1 246.54 192.86   Z"/>
</svg>