<?xml version="1.0" encoding="UTF-8" standalone="no"?>
<!DOCTYPE svg PUBLIC "-//W3C//DTD SVG 1.1//EN" "http://www.w3.org/Graphics/SVG/1.1/DTD/svg11.dtd">
<svg xmlns="http://www.w3.org/2000/svg" version="1.1" viewBox="0.00 0.00 512.00 512.00">
<g stroke-width="2.00" fill="none" stroke-linecap="butt">
<path stroke="#808080" vector-effect="non-scaling-stroke" d="
  M 367.74 105.49
  A 0.30 0.30 0.0 0 0 367.51 105.59
  L 272.73 215.76
  A 0.30 0.30 0.0 0 1 272.26 215.74
  L 196.60 105.62
  A 0.30 0.30 0.0 0 0 196.35 105.49
  L 109.41 105.48
  A 0.30 0.30 0.0 0 0 109.16 105.95
  L 223.62 272.52
  A 0.30 0.30 0.0 0 1 223.60 272.89
  L 109.27 405.77
  A 0.30 0.30 0.0 0 0 109.49 406.27
  L 134.68 406.25
  A 0.30 0.30 0.0 0 0 134.91 406.15
  L 235.03 289.79
  A 0.30 0.30 0.0 0 1 235.50 289.81
  L 315.42 406.12
  A 0.30 0.30 0.0 0 0 315.67 406.25
  L 402.61 406.26
  A 0.30 0.30 0.0 0 0 402.86 405.79
  L 284.14 233.03
  A 0.30 0.30 0.0 0 1 284.16 232.66
  L 393.15 105.98
  A 0.30 0.30 0.0 0 0 392.93 105.48
  L 367.74 105.49"
/>
<path stroke="#808080" vector-effect="non-scaling-stroke" d="
  M 184.14 125.14
  A 0.33 0.33 0.0 0 0 183.87 125.00
  L 144.78 125.00
  A 0.33 0.33 0.0 0 0 144.51 125.52
  L 327.62 387.44
  A 0.33 0.33 0.0 0 0 327.89 387.58
  L 366.99 387.59
  A 0.33 0.33 0.0 0 0 367.26 387.07
  L 184.14 125.14"
/>
</g>
<path fill="#000000" d="
  M 248.56 0.00
  L 263.53 0.00
  C 333.60 2.36 399.72 32.84 445.91 84.32
  Q 508.15 153.69 512.00 248.59
  L 512.00 263.55
  Q 509.99 321.65 484.69 371.19
  Q 462.45 414.74 427.52 446.03
  Q 358.08 508.25 263.26 512.00
  L 248.65 512.00
  Q 192.56 510.10 144.31 486.42
  Q 98.94 464.14 66.35 427.92
  Q 3.95 358.57 0.00 263.72
  L 0.00 248.15
  Q 3.49 160.86 57.54 94.28
  C 104.14 36.88 173.81 2.53 248.56 0.00
  Z
  M 367.74 105.49
  A 0.30 0.30 0.0 0 0 367.51 105.59
  L 272.73 215.76
  A 0.30 0.30 0.0 0 1 272.26 215.74
  L 196.60 105.62
  A 0.30 0.30 0.0 0 0 196.35 105.49
  L 109.41 105.48
  A 0.30 0.30 0.0 0 0 109.16 105.95
  L 223.62 272.52
  A 0.30 0.30 0.0 0 1 223.60 272.89
  L 109.27 405.77
  A 0.30 0.30 0.0 0 0 109.49 406.27
  L 134.68 406.25
  A 0.30 0.30 0.0 0 0 134.91 406.15
  L 235.03 289.79
  A 0.30 0.30 0.0 0 1 235.50 289.81
  L 315.42 406.12
  A 0.30 0.30 0.0 0 0 315.67 406.25
  L 402.61 406.26
  A 0.30 0.30 0.0 0 0 402.86 405.79
  L 284.14 233.03
  A 0.30 0.30 0.0 0 1 284.16 232.66
  L 393.15 105.98
  A 0.30 0.30 0.0 0 0 392.93 105.48
  L 367.74 105.49
  Z"
/>
<path fill="#ffffff" d="
  M 367.74 105.49
  L 392.93 105.48
  A 0.30 0.30 0.0 0 1 393.15 105.98
  L 284.16 232.66
  A 0.30 0.30 0.0 0 0 284.14 233.03
  L 402.86 405.79
  A 0.30 0.30 0.0 0 1 402.61 406.26
  L 315.67 406.25
  A 0.30 0.30 0.0 0 1 315.42 406.12
  L 235.50 289.81
  A 0.30 0.30 0.0 0 0 235.03 289.79
  L 134.91 406.15
  A 0.30 0.30 0.0 0 1 134.68 406.25
  L 109.49 406.27
  A 0.30 0.30 0.0 0 1 109.27 405.77
  L 223.60 272.89
  A 0.30 0.30 0.0 0 0 223.62 272.52
  L 109.16 105.95
  A 0.30 0.30 0.0 0 1 109.41 105.48
  L 196.35 105.49
  A 0.30 0.30 0.0 0 1 196.60 105.62
  L 272.26 215.74
  A 0.30 0.30 0.0 0 0 272.73 215.76
  L 367.51 105.59
  A 0.30 0.30 0.0 0 1 367.74 105.49
  Z
  M 184.14 125.14
  A 0.33 0.33 0.0 0 0 183.87 125.00
  L 144.78 125.00
  A 0.33 0.33 0.0 0 0 144.51 125.52
  L 327.62 387.44
  A 0.33 0.33 0.0 0 0 327.89 387.58
  L 366.99 387.59
  A 0.33 0.33 0.0 0 0 367.26 387.07
  L 184.14 125.14
  Z"
/>
<path fill="#000000" d="
  M 184.14 125.14
  L 367.26 387.07
  A 0.33 0.33 0.0 0 1 366.99 387.59
  L 327.89 387.58
  A 0.33 0.33 0.0 0 1 327.62 387.44
  L 144.51 125.52
  A 0.33 0.33 0.0 0 1 144.78 125.00
  L 183.87 125.00
  A 0.33 0.33 0.0 0 1 184.14 125.14
  Z"
/>
</svg>
